<?xml version="1.0" standalone="no"?>
<!DOCTYPE svg PUBLIC "-//W3C//DTD SVG 20010904//EN"
 "http://www.w3.org/TR/2001/REC-SVG-20010904/DTD/svg10.dtd">
<svg version="1.0" xmlns="http://www.w3.org/2000/svg"
 width="1200.000000pt" height="900.000000pt" viewBox="0 0 1200.000000 900.000000"
 preserveAspectRatio="xMidYMid meet">

<g transform="translate(0.000000,900.000000) scale(0.100000,-0.100000)"
fill="#000000" stroke="none">
<path d="M5208 8040 c-56 -10 -136 -39 -197 -72 -55 -28 -162 -127 -201 -184
-43 -61 -79 -167 -86 -248 -11 -115 -38 -149 -149 -180 -69 -20 -169 -72 -227
-119 -44 -35 -125 -138 -140 -177 -5 -14 -16 -38 -24 -55 -27 -53 -38 -174
-25 -261 6 -42 15 -82 20 -88 5 -6 15 -32 21 -56 18 -72 -6 -113 -95 -165
-132 -76 -235 -229 -257 -382 -13 -86 0 -222 23 -250 6 -7 9 -13 6 -13 -3 0 8
-24 24 -52 76 -135 92 -177 85 -225 -3 -27 -16 -57 -32 -76 -84 -100 -126
-256 -107 -400 17 -124 58 -203 164 -312 85 -88 108 -158 75 -236 -38 -92 -46
-228 -20 -334 24 -94 74 -178 150 -251 85 -82 174 -127 314 -160 149 -36 167
-51 210 -182 38 -118 101 -216 179 -279 248 -202 612 -188 835 31 80 78 113
131 145 231 21 65 22 75 21 898 0 470 -4 835 -9 840 -8 8 -230 -16 -264 -28
-37 -14 -302 -44 -310 -36 -6 6 -5 26 2 53 6 24 29 111 51 193 21 83 51 195
65 250 15 55 38 143 52 195 36 139 62 236 84 318 10 39 27 105 38 145 26 100
109 416 133 507 11 41 30 116 43 165 13 50 32 124 43 165 81 303 83 322 56
418 -55 189 -188 322 -394 394 -63 22 -228 32 -302 18z"/>
<path d="M6555 8044 c-11 -2 -51 -14 -90 -26 -215 -64 -375 -240 -405 -443
-12 -89 -14 -1692 -1 -1699 5 -4 69 3 143 14 73 11 192 29 265 39 72 11 136
21 140 24 5 3 15 2 23 -3 19 -11 11 -49 -88 -420 -22 -83 -62 -234 -117 -445
-61 -233 -73 -276 -100 -380 -15 -55 -35 -131 -45 -170 -10 -38 -30 -115 -44
-170 -15 -55 -35 -134 -46 -175 -32 -126 -56 -214 -63 -230 -3 -8 -13 -44 -21
-80 -8 -36 -24 -99 -34 -141 -16 -60 -18 -87 -10 -134 18 -117 92 -244 187
-320 31 -25 61 -49 68 -55 7 -5 15 -10 18 -10 3 0 29 -12 58 -26 105 -51 269
-67 402 -39 205 43 401 224 440 405 11 50 50 122 77 141 13 9 68 26 123 39
151 34 224 71 323 165 65 61 110 129 142 215 34 89 34 245 2 335 -41 111 -27
179 53 255 156 150 218 370 156 554 -25 74 -53 128 -82 161 -10 11 -25 40 -33
63 -13 37 -13 48 0 91 8 27 33 80 55 117 63 103 83 172 83 284 0 103 -18 166
-75 266 -34 60 -151 175 -208 203 -22 11 -49 32 -60 47 -25 31 -28 92 -7 132
8 15 21 66 30 114 16 83 16 92 -3 180 -25 123 -70 203 -164 291 -73 69 -173
127 -247 142 -19 4 -54 18 -76 31 -46 26 -63 59 -70 134 -22 231 -174 421
-398 496 -69 24 -250 41 -301 28z"/>
<path d="M4275 2437 c-68 -22 -121 -102 -112 -168 17 -125 154 -187 260 -118
46 30 82 106 73 154 -19 99 -127 164 -221 132z"/>
<path d="M5417 2282 c-14 -3 -17 -18 -17 -93 l0 -89 70 0 70 0 0 -120 c0 -66
-2 -120 -5 -120 -3 0 -20 16 -37 36 -43 49 -114 82 -202 94 -204 29 -389 -72
-480 -263 -41 -86 -54 -138 -62 -255 -25 -353 135 -589 411 -609 137 -10 241
20 333 94 l42 34 0 -34 c0 -19 9 -45 19 -58 19 -24 23 -24 220 -27 l201 -3 0
90 0 91 -65 0 -65 0 0 615 0 614 -208 3 c-115 2 -216 2 -225 0z m56 -535 l67
-30 0 -283 0 -282 -37 -30 c-72 -56 -123 -76 -193 -76 -144 0 -219 87 -243
282 -27 227 42 406 169 441 92 25 143 21 237 -22z"/>
<path d="M7533 2282 l-143 -3 0 -149 0 -150 -55 0 -56 0 3 -92 3 -93 50 0 50
0 5 -443 5 -444 24 -19 c21 -18 42 -19 267 -19 l244 0 0 90 0 90 -115 0 -115
0 0 373 0 372 110 -3 110 -3 0 95 0 96 -110 0 -109 0 -3 152 c-2 91 -7 152
-13 152 -5 1 -74 0 -152 -2z"/>
<path d="M6487 1990 c-99 -9 -243 -44 -284 -70 l-28 -17 3 -106 3 -107 68 0
c64 0 69 2 101 35 19 20 51 40 72 46 57 15 220 13 259 -4 62 -26 73 -48 79
-159 l5 -100 -30 6 c-16 3 -77 8 -135 12 -130 8 -234 -7 -315 -45 -69 -32
-101 -60 -141 -122 -28 -42 -29 -49 -29 -164 0 -106 3 -125 23 -163 34 -64 92
-114 163 -142 54 -21 80 -25 164 -24 87 0 108 4 161 28 34 15 77 43 95 62 18
19 36 34 39 34 3 0 5 -18 5 -40 0 -71 9 -75 225 -78 l190 -3 0 90 0 90 -52 3
-53 3 -5 355 -5 355 -28 57 c-54 110 -161 162 -352 171 -60 3 -150 1 -198 -3z
m209 -632 c35 -6 64 -16 65 -22 0 -6 0 -56 -1 -111 -1 -90 -3 -102 -23 -118
-30 -24 -95 -54 -135 -62 -92 -19 -184 40 -196 125 -21 155 88 225 290 188z"/>
<path d="M4040 1890 c0 -101 -3 -97 90 -102 l45 -3 0 -365 0 -365 -68 -3 -68
-3 3 -87 3 -87 285 0 285 0 3 88 3 87 -66 0 -65 0 -2 463 -3 462 -222 3 -223
2 0 -90z"/>
</g>
</svg>
